<svg xmlns="http://www.w3.org/2000/svg" viewBox="0 0 900 760">
  <defs>
    <linearGradient id="bg" x1="0" x2="1" y1="0" y2="1"><stop stop-color="#eaf2ff"/><stop offset="1" stop-color="#ffffff"/></linearGradient>
    <filter id="shadow" x="-20%" y="-20%" width="140%" height="140%"><feDropShadow dx="0" dy="18" stdDeviation="18" flood-color="#163d86" flood-opacity=".14"/></filter>
    <style>.title{font-family:DejaVu Sans,Arial,sans-serif;font-size:60px;font-weight:800;fill:#153a79}.small{font-family:DejaVu Sans,Arial,sans-serif;font-size:24px;font-weight:600;fill:#1d4ed8}.node{fill:#fff;stroke:#1d4ed8;stroke-width:4}.label{font-family:DejaVu Sans,Arial,sans-serif;font-size:19px;font-weight:700;fill:#153a79}.sub{font-family:DejaVu Sans,Arial,sans-serif;font-size:15px;font-weight:400;fill:#526176}</style>
  </defs>
  <rect x="20" y="20" width="860" height="720" rx="48" fill="url(#bg)" filter="url(#shadow)"/>
  <circle cx="690" cy="185" r="94" fill="#1d4ed8" opacity=".11"/>
  <circle cx="735" cy="530" r="132" fill="#1d4ed8" opacity=".08"/>
  <text x="78" y="155" class="title">ENTRE</text><text x="78" y="235" class="title">CONJETURAS</text><text x="78" y="315" class="title">Y PRUEBAS</text>
  <text x="82" y="405" class="small">explorar · justificar · enseñar</text>
  <path d="M175 555 C310 500, 420 650, 555 570 S750 470, 790 575" fill="none" stroke="#1d4ed8" stroke-width="5" stroke-linecap="round" stroke-dasharray="10 13"/>
  <circle cx="175" cy="550" r="74" class="node"/>
  <text x="175" y="540" text-anchor="middle" class="label">DESCUBRIR</text>
  <text x="175" y="568" text-anchor="middle" class="sub">intuición · búsqueda</text>
  <circle cx="475" cy="605" r="74" class="node"/>
  <text x="475" y="600" text-anchor="middle" class="label">JUSTIFICAR</text>
  <text x="475" y="628" text-anchor="middle" class="sub">prueba · validez</text>
  <circle cx="760" cy="555" r="74" class="node"/>
  <text x="760" y="550" text-anchor="middle" class="label">ENSEÑAR</text>
  <text x="760" y="578" text-anchor="middle" class="sub">significado · diálogo</text>
</svg>
